<svg xmlns="http://www.w3.org/2000/svg" width="512" height="512" viewBox="0 0 512 512" data-svgdocument="" id="_N_GmHKCKWG3FnQkYv1xDa" class="fl-svgdocument" x="0" y="0" style="overflow: hidden;" xmlns:xlink="http://www.w3.org/1999/xlink"><defs id="_B0JN1tcIFqAlcDGTIJTGI" transform="matrix(1.1247128727370366, 0, 0, 1.1247128727370366, 0.0000017685991053895123, -35.630897991247906)"></defs><g id="_HUE2p16roOEU8zhf6uE-u" transform="matrix(1.0190311514393084, 0, 0, 1.0190311514393084, 40.370511351276186, 211.0135398982276)"><g id="_scHPsFHr2eDdMXDBmFsqZ" transform="matrix(0.6106000542640686, 0.5895999670028687, -0.9068000912666321, 0.939000129699707, 40.41130065917969, 0.5158999562263489)"><svg id="_2m1wkQQgBEYueNns9ONhX" width="44.67500000000001" height="44.67500000000001" viewBox="4.8309999999999995,51.541,44.67500000000001,44.67500000000001"><defs id="_LJe4KblJ8OjB83XSw_yfF" fill="#e78200"></defs><path id="_1rmiZxvfPNl2H7fJJLj_6" d="M15.883,56.541L9.831,57.13c1.667,18.059,16.031,32.43,34.084,34.086l0.591-6.043    C29.336,83.756,17.287,71.713,15.883,56.541z" fill="#e78200"></path></svg></g><g id="_HLmQuU5gNV35Ona7ElfBH" transform="matrix(-0.6106000542640686, -0.5895999670028687, 0.9068000912666321, -0.939000129699707, 47.377899169921875, 87.77670288085938)"><svg id="_NwnVCAV9KESiErSBJvYRn" width="44.67500000000001" height="44.67500000000001" viewBox="4.8309999999999995,51.541,44.67500000000001,44.67500000000001"><defs id="_cEdTdYwWV4A10iW5rXwmd" fill="#e78200"></defs><path id="_evrtdIntrdztIW012DZ3f" d="M15.883,56.541L9.831,57.13c1.667,18.059,16.031,32.43,34.084,34.086l0.591-6.043    C29.336,83.756,17.287,71.713,15.883,56.541z" fill="#e78200"></path></svg></g><g id="_7gTQZlMzh3K4gCfBfLuV-" transform="matrix(0.5, 0, 0, 0.5, 74.76850128173828, 9.763099670410156)"><svg id="_WHvtTeu3blBQ0MMwUaxEZ" width="631.005859375" height="203" style="overflow: visible;"><defs id="_Cv9u2tLaWZr8uAkDHjIBA" fill="#7e7e7e"></defs><g id="_7Q18lviSozCR952Qf2dV-" transform="matrix(1, 0, 0, 1, 599.7583618164062, 107.25)" fill="#7e7e7e"><path text="Katachi" text-anchor="end" font-size="100" letter-spacing="0" side="left" offset="1" dx="0" dy="0" space="preserve" href="" font-family="Michroma" font-scale="contain" x="0" y="0" fill="#7e7e7e" data-fl-textpath="" id="_HWCrU96ESEsDfsLlYG3df" d="M-463.671875-42.19L-415.231875-75L-401.171875-75L-454.291875-38.28L-399.611875 0L-413.671875 0L-463.671875-34.38L-476.171875-34.38L-476.171875 0L-485.541875 0L-485.541875-75L-476.171875-75L-476.171875-42.19L-463.671875-42.19ZM-340.474375 0L-340.474375-7.71Q-340.624375-7.13 -342.674375-4.79L-342.674375-4.79Q-344.14437499999997-3.03 -346.584375-1.68Q-349.024375-0.34 -353.104375 0.42Q-357.174375 1.17 -363.814375 1.17L-363.814375 1.17Q-372.654375 1.17 -378.904375 0.27Q-385.154375-0.63 -389.114375-2.51Q-393.064375-4.39 -394.894375-7.32Q-396.724375-10.25 -396.724375-14.31L-396.724375-14.31Q-396.724375-18.55 -395.724375-21.51Q-394.724375-24.46 -392.794375-26.46Q-390.864375-28.47 -388.134375-29.59Q-385.404375-30.71 -381.904375-31.3Q-378.414375-31.88 -374.264375-32.03Q-370.114375-32.18 -365.434375-32.18L-365.434375-32.18Q-358.744375-32.18 -354.244375-31.62Q-349.754375-31.05 -346.904375-30.2Q-344.044375-29.35 -342.57437500000003-28.37Q-341.114375-27.39 -340.474375-26.56L-340.474375-26.56Q-340.474375-32.03 -340.944375-35.89Q-341.404375-39.75 -342.454375-42.33Q-343.504375-44.92 -345.164375-46.46Q-346.82437500000003-48 -349.244375-48.78Q-351.664375-49.56 -354.884375-49.78Q-358.104375-50 -362.254375-50L-362.254375-50Q-368.704375-50 -372.944375-49.68Q-377.194375-49.37 -379.684375-48.44Q-382.174375-47.51 -383.204375-45.87Q-384.224375-44.24 -384.224375-41.6L-384.224375-41.6L-393.604375-41.6Q-393.604375-46.04 -392.014375-49.12Q-390.434375-52.2 -386.744375-54.13Q-383.054375-56.05 -377.054375-56.93Q-371.044375-57.81 -362.254375-57.81L-362.254375-57.81Q-353.664375-57.81 -347.704375-56.4Q-341.744375-54.98 -338.064375-51.42Q-334.374375-47.85 -332.734375-41.82Q-331.104375-35.79 -331.104375-26.56L-331.104375-26.56L-331.104375 0L-340.474375 0ZM-362.254375-6.25L-362.254375-6.25Q-356.054375-6.25 -351.884375-6.84Q-347.704375-7.42 -345.164375-8.59Q-342.624375-9.77 -341.554375-11.52Q-340.474375-13.28 -340.474375-15.63L-340.474375-15.63Q-340.474375-17.97 -341.724375-19.6Q-342.964375-21.24 -345.874375-22.27Q-348.774375-23.29 -353.564375-23.75Q-358.354375-24.22 -365.384375-24.22L-365.384375-24.22Q-372.414375-24.22 -376.734375-23.97Q-381.054375-23.73 -383.394375-22.85Q-385.744375-21.97 -386.544375-20.26Q-387.354375-18.55 -387.354375-15.63L-387.354375-15.63Q-387.354375-12.7 -386.494375-10.86Q-385.644375-9.03 -383.004375-8.01Q-380.374375-6.98 -375.414375-6.62Q-370.454375-6.25 -362.254375-6.25ZM-271.723515625-25L-263.913515625-25Q-263.913515625-17.82 -265.083515625-13.01Q-266.26351562499997-8.2 -269.023515625-5.32Q-271.773515625-2.44 -276.273515625-1.22Q-280.76351562499997 0 -287.353515625 0L-287.353515625 0Q-293.753515625 0 -298.093515625-0.98Q-302.443515625-1.95 -305.123515625-4.3Q-307.813515625-6.64 -308.983515625-10.55Q-310.153515625-14.45 -310.153515625-20.31L-310.153515625-20.31L-310.153515625-48.54L-321.723515625-48.54L-321.723515625-56.25L-310.153515625-56.25L-310.153515625-71.63L-300.783515625-71.63L-300.783515625-56.25L-265.473515625-56.25L-265.473515625-48.54L-300.783515625-48.54L-300.783515625-20.31Q-300.783515625-15.63 -300.073515625-13.09Q-299.363515625-10.55 -297.803515625-9.38Q-296.243515625-8.2 -293.673515625-8.01Q-291.113515625-7.81 -287.403515625-7.81L-287.403515625-7.81Q-284.473515625-7.81 -282.153515625-7.91Q-279.833515625-8.01 -278.103515625-8.52Q-276.363515625-9.03 -275.143515625-10.08Q-273.923515625-11.13 -273.173515625-13.04Q-272.413515625-14.94 -272.073515625-17.85Q-271.723515625-20.75 -271.723515625-25L-271.723515625-25ZM-198.531015625 0L-198.531015625-7.71Q-198.681015625-7.13 -200.731015625-4.79L-200.731015625-4.79Q-202.201015625-3.03 -204.641015625-1.68Q-207.081015625-0.34 -211.161015625 0.42Q-215.231015625 1.17 -221.87101562499998 1.17L-221.87101562499998 1.17Q-230.71101562500002 1.17 -236.96101562500002 0.27Q-243.21101562500002-0.63 -247.171015625-2.51Q-251.121015625-4.39 -252.951015625-7.32Q-254.781015625-10.25 -254.781015625-14.31L-254.781015625-14.31Q-254.781015625-18.55 -253.781015625-21.51Q-252.781015625-24.46 -250.851015625-26.46Q-248.921015625-28.47 -246.191015625-29.59Q-243.46101562500002-30.71 -239.96101562500002-31.3Q-236.471015625-31.88 -232.321015625-32.03Q-228.171015625-32.18 -223.491015625-32.18L-223.491015625-32.18Q-216.801015625-32.18 -212.301015625-31.62Q-207.811015625-31.05 -204.96101562500002-30.2Q-202.101015625-29.35 -200.631015625-28.37Q-199.171015625-27.39 -198.531015625-26.56L-198.531015625-26.56Q-198.531015625-32.03 -199.001015625-35.89Q-199.46101562500002-39.75 -200.511015625-42.33Q-201.561015625-44.92 -203.221015625-46.46Q-204.881015625-48 -207.301015625-48.78Q-209.721015625-49.56 -212.941015625-49.78Q-216.161015625-50 -220.311015625-50L-220.311015625-50Q-226.761015625-50 -231.001015625-49.68Q-235.251015625-49.37 -237.741015625-48.44Q-240.231015625-47.51 -241.261015625-45.87Q-242.281015625-44.24 -242.281015625-41.6L-242.281015625-41.6L-251.661015625-41.6Q-251.661015625-46.04 -250.071015625-49.12Q-248.491015625-52.2 -244.801015625-54.13Q-241.111015625-56.05 -235.111015625-56.93Q-229.101015625-57.81 -220.311015625-57.81L-220.311015625-57.81Q-211.721015625-57.81 -205.761015625-56.4Q-199.801015625-54.98 -196.12101562499998-51.42Q-192.431015625-47.85 -190.791015625-41.82Q-189.161015625-35.79 -189.161015625-26.56L-189.161015625-26.56L-189.161015625 0L-198.531015625 0ZM-220.311015625-6.25L-220.311015625-6.25Q-214.111015625-6.25 -209.941015625-6.84Q-205.761015625-7.42 -203.221015625-8.59Q-200.681015625-9.77 -199.611015625-11.52Q-198.531015625-13.28 -198.531015625-15.63L-198.531015625-15.63Q-198.531015625-17.97 -199.781015625-19.6Q-201.021015625-21.24 -203.931015625-22.27Q-206.831015625-23.29 -211.62101562499998-23.75Q-216.411015625-24.22 -223.441015625-24.22L-223.441015625-24.22Q-230.471015625-24.22 -234.791015625-23.97Q-239.111015625-23.73 -241.451015625-22.85Q-243.801015625-21.97 -244.601015625-20.26Q-245.411015625-18.55 -245.411015625-15.63L-245.411015625-15.63Q-245.411015625-12.7 -244.551015625-10.86Q-243.701015625-9.03 -241.061015625-8.01Q-238.431015625-6.98 -233.471015625-6.62Q-228.511015625-6.25 -220.311015625-6.25ZM-178.22015625-28.03L-178.22015625-28.03Q-178.22015625-33.89 -177.64015625-38.38Q-177.05015625-42.87 -175.56015625-46.19Q-174.07015625-49.51 -171.56015625-51.73Q-169.04015625-53.96 -165.21015625-55.32Q-161.38015625-56.69 -156.10015625-57.28Q-150.83015625000002-57.86 -143.80015625-57.86L-143.80015625-57.86Q-134.42015625-57.86 -128.37015625-56.71Q-122.31015625-55.57 -118.80015625-53.2Q-115.28015625-50.83 -113.92015625-47.19Q-112.55015625-43.55 -112.55015625-38.53L-112.55015625-38.53L-121.92015624999999-38.53Q-121.92015624999999-40.33 -122.02015625-41.89Q-122.12015625000001-43.46 -122.73015625-44.73Q-123.34015625-46 -124.66015625-47Q-125.98015625-48 -128.42015625-48.68Q-130.86015625-49.37 -134.59015625-49.71Q-138.33015625000002-50.05 -143.80015625-50.05L-143.80015625-50.05Q-150.05015625-50.05 -154.32015625-49.61Q-158.59015625-49.17 -161.38015625-48.17Q-164.16015625-47.17 -165.67015625-45.48Q-167.19015625-43.8 -167.87015625-41.36Q-168.55015625-38.92 -168.68015625-35.62Q-168.80015625-32.32 -168.80015625-28.03L-168.80015625-28.03Q-168.80015625-23.83 -168.68015625-20.58Q-168.55015625-17.33 -167.87015625-14.92Q-167.19015625-12.5 -165.67015625-10.84Q-164.16015625-9.18 -161.38015625-8.15Q-158.59015625-7.13 -154.32015625-6.69Q-150.05015625-6.25 -143.80015625-6.25L-143.80015625-6.25Q-138.33015625000002-6.25 -134.59015625-6.64Q-130.86015625-7.03 -128.42015625-7.76Q-125.98015625-8.5 -124.66015625-9.57Q-123.34015625-10.64 -122.73015625-12.04Q-122.12015625000001-13.43 -122.02015625-15.11Q-121.92015624999999-16.8 -121.92015624999999-18.75L-121.92015624999999-18.75L-112.55015625-18.75Q-112.55015625-13.62 -113.92015625-9.86Q-115.28015625-6.1 -118.80015625-3.69Q-122.31015625-1.27 -128.37015625-0.1Q-134.42015625 1.07 -143.80015625 1.07L-143.80015625 1.07Q-150.83015625000002 1.07 -156.10015625 0.49Q-161.38015625-0.1 -165.21015625-1.44Q-169.04015625-2.78 -171.56015625-4.98Q-174.07015625-7.18 -175.56015625-10.4Q-177.05015625-13.62 -177.64015625-17.99Q-178.22015625-22.36 -178.22015625-28.03ZM-34.418828125000005 0L-43.798828125 0L-43.798828125-31.74Q-43.798828125-36.82 -44.578828125-40.31Q-45.358828125-43.8 -47.708828125-45.95Q-50.048828125-48.1 -54.348828125-49.05Q-58.638828125-50 -65.668828125-50L-65.668828125-50Q-73.28882812500001-50 -78.148828125-48.9Q-83.00882812500001-47.8 -85.788828125-45.83Q-88.578828125-43.85 -89.628828125-41.06Q-90.668828125-38.28 -90.668828125-34.86L-90.668828125-34.86L-90.668828125 0L-100.048828125 0L-100.048828125-75L-90.668828125-75L-90.668828125-47.36Q-89.698828125-49.66 -87.888828125-51.32Q-86.08882812499999-52.98 -83.718828125-54.15Q-81.348828125-55.32 -78.608828125-56.03Q-75.878828125-56.74 -73.06882812500001-57.13Q-70.25882812500001-57.52 -67.548828125-57.67Q-64.83882812499999-57.81 -62.548828125-57.81L-62.548828125-57.81Q-56.298828125-57.81 -51.778828125-57.06Q-47.268828125-56.3 -44.118828125-54.81Q-40.968828125-53.32 -39.058828125000005-51.12Q-37.158828125-48.93 -36.108828125-46.02Q-35.058828125000005-43.12 -34.718828125-39.53Q-34.378828125-35.94 -34.378828125-31.74L-34.378828125-31.74L-34.418828125000005 0ZM-18.744999999999997 0L-18.744999999999997-56.25L-9.375-56.25L-9.375 0L-18.744999999999997 0ZM-9.375-75L-9.375-65.63L-18.744999999999997-65.63L-18.744999999999997-75L-9.375-75Z"></path></g></svg></g><g id="_lhlGhYDBltOuDVzUhCgFq" transform="matrix(0.09270000457763672, 0, 0, 0.09270000457763672, 398.8555908203125, 36.89500045776367)"><svg id="_F70Kc6aa84zg_cwMw1Yot" width="187.0337218024264" height="186.77" viewBox="-5.131860901213205,-5,187.0337218024264,186.77" class="thumb"><defs id="_xWXiQ-_q-9-q7fJCn8ILC" fill="#e78200"></defs><circle id="_6x6Gg5wDVe673muFqIh8M" cx="88.385" cy="88.385" r="88.385" fill="#e78200"></circle></svg></g><g id="_GiWu68yLX0dUTNP1sV1AD" transform="matrix(0.5, 0, 0, 0.5, 436.1069030761719, 7.7631001472473145)"><svg id="_6owYwbjQm4nNy0UxDplKV" width="389.6484375" height="203" style="overflow: visible;"><defs id="_CqIYf1h5SehqIiC7WTaUA" fill="#7e7e7e"></defs><g id="_v6GRevkrCvG5JCjwA5oJ3" transform="matrix(1, 0, 0, 1, 0, 107.25)" fill="#7e7e7e"></g></svg></g></g></svg>